<?xml version="1.0" encoding="iso-8859-1"?>
<!-- Generator: Adobe Illustrator 19.0.0, SVG Export Plug-In . SVG Version: 6.00 Build 0)  -->
<svg version="1.1" id="Layer_1" xmlns="http://www.w3.org/2000/svg" xmlns:xlink="http://www.w3.org/1999/xlink" x="0px" y="0px"
	 viewBox="0 0 512 512" style="enable-background:new 0 0 512 512;" xml:space="preserve">
<path style="fill:#F8E99B;" d="M439.242,191.326H226.037c-21.156-32.445-57.763-53.895-99.384-53.895
	C61.169,137.431,8.084,190.516,8.084,256s53.085,118.568,118.568,118.568c41.007,0,77.151-20.82,98.442-52.463l20.126,20.126
	l43.116-43.116l43.116,43.116l43.116-43.116l43.116,43.116L503.916,256L439.242,191.326z M126.653,288.337
	c-17.86,0-32.337-14.478-32.337-32.337s14.477-32.337,32.337-32.337c17.859,0,32.337,14.478,32.337,32.337
	S144.511,288.337,126.653,288.337z"/>
<g>
	<path style="fill:#F6E27D;" d="M261.389,272.168c0,0-47.074,6.821-90.19,49.936c-20.873,20.873-41.852,42.497-71.492,49.387
		c8.657,2.011,17.676,3.077,26.945,3.077c41.007,0,77.151-20.82,98.442-52.463l20.126,20.126l43.116-43.116L261.389,272.168z"/>
	<path style="fill:#F6E27D;" d="M172.142,191.326h53.895c-21.156-32.445-57.763-53.895-99.384-53.895
		c-9.27,0-18.29,1.066-26.947,3.077C129.919,147.532,155.698,166.108,172.142,191.326z"/>
	
		<rect x="309.049" y="288.137" transform="matrix(-0.7071 0.7071 -0.7071 -0.7071 796.841 284.3156)" style="fill:#F6E27D;" width="60.976" height="38.103"/>
	<polygon style="fill:#F6E27D;" points="439.242,191.326 385.347,191.326 450.021,256 390.737,315.284 417.684,342.231 503.916,256 
			"/>
</g>
<g>
	<path style="fill:#2E2D31;" d="M126.653,382.652C56.816,382.652,0,325.837,0,256s56.816-126.653,126.653-126.653
		c42.968,0,82.653,21.519,106.155,57.563c2.439,3.74,1.384,8.748-2.356,11.187c-3.74,2.437-8.748,1.384-11.187-2.356
		c-20.507-31.45-55.128-50.226-92.612-50.226c-60.922,0-110.484,49.563-110.484,110.484s49.563,110.484,110.484,110.484
		c36.844,0,71.137-18.277,91.734-48.891c1.348-2.004,3.524-3.302,5.928-3.533c2.41-0.234,4.788,0.621,6.495,2.329l14.41,14.41
		l37.4-37.4c3.157-3.156,8.276-3.156,11.432,0l37.4,37.4l37.4-37.4c3.157-3.156,8.276-3.156,11.432,0l37.4,37.4L492.484,256
		l-56.589-56.589H266.779c-4.465,0-8.084-3.618-8.084-8.084s3.62-8.084,8.084-8.084h172.463c2.144,0,4.201,0.852,5.716,2.367
		l64.674,64.674c3.157,3.158,3.157,8.276,0,11.433L423.4,347.947c-3.157,3.156-8.276,3.156-11.432,0l-37.4-37.4l-37.4,37.4
		c-3.157,3.156-8.276,3.156-11.432,0l-37.4-37.4l-37.4,37.4c-3.157,3.156-8.276,3.156-11.432,0l-13.451-13.451
		C202.102,364.819,165.623,382.652,126.653,382.652z M126.653,296.421c-22.289,0-40.421-18.132-40.421-40.421
		c0-22.289,18.132-40.421,40.421-40.421s40.421,18.132,40.421,40.421C167.074,278.289,148.941,296.421,126.653,296.421z
		 M126.653,231.747c-13.373,0-24.253,10.88-24.253,24.253c0,13.372,10.879,24.253,24.253,24.253s24.253-10.88,24.253-24.253
		C150.905,242.627,140.026,231.747,126.653,231.747z"/>
	<path style="fill:#2E2D31;" d="M439.242,264.084H212.884c-4.465,0-8.084-3.618-8.084-8.084c0-4.466,3.62-8.084,8.084-8.084h226.358
		c4.465,0,8.084,3.618,8.084,8.084C447.326,260.466,443.707,264.084,439.242,264.084z"/>
</g>
<g>
</g>
<g>
</g>
<g>
</g>
<g>
</g>
<g>
</g>
<g>
</g>
<g>
</g>
<g>
</g>
<g>
</g>
<g>
</g>
<g>
</g>
<g>
</g>
<g>
</g>
<g>
</g>
<g>
</g>
</svg>
